<?xml version="1.0" standalone="no"?>
<!DOCTYPE svg PUBLIC "-//W3C//DTD SVG 20010904//EN"
 "http://www.w3.org/TR/2001/REC-SVG-20010904/DTD/svg10.dtd">
<svg version="1.0" xmlns="http://www.w3.org/2000/svg"
 width="1920.000000pt" height="1219.000000pt" viewBox="0 0 1920.000000 1219.000000"
 preserveAspectRatio="xMidYMid meet">

<g transform="translate(0.000000,1219.000000) scale(0.100000,-0.100000)"
fill="#000000" stroke="none">
<path d="M7307 10303 c-4 -3 -7 -15 -7 -25 0 -17 22 -18 433 -20 l432 -3 3
-620 2 -621 -110 -32 c-645 -187 -1099 -573 -1271 -1079 -54 -161 -64 -230
-64 -448 1 -228 15 -327 70 -492 69 -207 159 -348 335 -524 201 -202 428 -353
821 -546 l215 -107 12 -160 c61 -827 375 -1369 972 -1671 329 -167 855 -275
1336 -275 62 0 115 -4 118 -8 8 -14 -62 -211 -107 -296 -188 -363 -566 -599
-1096 -685 -356 -58 -751 -44 -1066 38 -291 76 -561 213 -789 401 -88 72 -264
252 -338 345 -219 276 -412 664 -527 1057 -35 122 -40 133 -62 133 l-24 0 0
-1000 0 -1000 22 -3 c18 -3 27 7 46 45 82 162 197 251 348 271 143 20 294 -10
764 -152 606 -183 849 -223 1275 -213 396 9 681 54 1000 159 344 112 612 270
835 493 133 133 210 235 284 375 l50 94 127 33 c565 149 968 457 1208 923 144
281 219 567 246 945 5 76 10 1071 10 2377 l0 2248 433 2 c424 3 432 3 432 23
0 20 -7 20 -885 20 l-885 0 -3 -22 -3 -23 431 0 431 0 -4 -2342 c-3 -2550 0
-2383 -57 -2664 -152 -741 -605 -1237 -1309 -1430 -69 -19 -129 -34 -136 -34
-6 0 2 40 23 102 56 172 75 305 75 523 0 287 -36 463 -138 670 -252 512 -874
907 -2240 1422 -699 263 -1076 471 -1325 729 -140 145 -215 273 -262 445 -20
72 -23 108 -23 254 0 146 3 182 23 255 75 273 247 489 512 640 77 43 232 110
256 110 12 0 14 -112 14 -696 l0 -696 68 -67 c121 -121 342 -234 677 -347
l160 -54 5 1588 5 1587 428 3 428 2 -3 23 -3 22 -1311 3 c-721 1 -1314 -1
-1317 -5z m2158 -5055 c472 -203 796 -413 961 -622 161 -203 223 -409 211
-698 -8 -192 -7 -188 -73 -188 -66 0 -259 26 -339 46 -548 136 -879 492 -1035
1114 -32 128 -66 317 -76 427 l-7 73 109 -46 c60 -25 172 -72 249 -106z"/>
<path d="M10640 8899 c-44 -77 -92 -127 -144 -150 -64 -27 -163 -42 -242 -35
-119 11 -200 37 -461 150 l-83 35 0 -43 0 -44 87 -58 c411 -274 691 -708 879
-1366 3 -10 14 -18 25 -18 19 0 19 14 17 793 -3 783 -3 792 -23 795 -15 2 -28
-12 -55 -59z"/>
<path d="M6905 1608 c-68 -24 -117 -94 -117 -168 0 -57 21 -101 67 -136 77
-58 241 -30 205 35 l-10 20 -42 -21 c-38 -20 -44 -20 -82 -7 -73 25 -106 106
-70 169 34 56 97 74 156 44 27 -14 32 -14 45 -1 20 20 9 35 -41 58 -46 21 -67
22 -111 7z"/>
<path d="M7630 1440 l0 -170 25 0 c24 0 25 2 25 65 0 61 1 65 23 65 16 0 34
-17 66 -65 37 -54 49 -65 73 -65 15 0 28 3 28 7 0 4 -19 34 -41 66 l-41 58 25
27 c34 36 42 72 24 115 -21 48 -60 67 -142 67 l-65 0 0 -170z m138 104 c47
-33 15 -94 -50 -94 l-38 0 0 55 0 55 33 0 c18 0 43 -7 55 -16z"/>
<path d="M8422 1443 l3 -168 98 -3 97 -3 0 31 0 30 -70 0 -70 0 0 45 0 44 63
3 c54 3 62 5 62 23 0 18 -8 20 -62 23 l-63 3 0 44 0 45 70 0 c68 0 70 1 70 25
l0 25 -100 0 -100 0 2 -167z"/>
<path d="M9243 1450 c-40 -88 -73 -164 -73 -170 0 -5 11 -10 25 -10 17 0 29 8
37 25 11 24 16 25 88 25 72 0 79 -2 94 -25 10 -16 26 -25 41 -25 14 0 25 2 25
5 0 12 -150 330 -157 332 -4 2 -41 -69 -80 -157z m85 -78 c-28 -2 -52 -1 -55
2 -3 3 7 31 22 63 l27 58 28 -60 28 -60 -50 -3z"/>
<path d="M9970 1586 c0 -22 5 -25 43 -28 l42 -3 2 -140 1 -140 26 -3 26 -3 0
145 0 146 45 0 c41 0 45 2 45 25 l0 25 -115 0 -115 0 0 -24z"/>
<path d="M10750 1440 l0 -171 28 3 27 3 0 165 0 165 -27 3 -28 3 0 -171z"/>
<path d="M11360 1603 c0 -12 144 -333 150 -333 6 1 150 321 150 333 0 5 -12 7
-27 5 -24 -3 -32 -15 -72 -105 -24 -57 -48 -103 -51 -103 -4 0 -27 46 -52 103
-39 89 -49 102 -72 105 -14 2 -26 0 -26 -5z"/>
<path d="M12212 1443 l3 -168 100 0 100 0 0 25 c0 24 -3 25 -72 28 l-73 3 0
44 0 45 65 0 c63 0 65 1 65 25 0 24 -2 25 -65 25 l-65 0 0 45 0 45 76 0 c72 0
75 1 72 23 -3 21 -8 22 -106 25 l-102 3 2 -168z"/>
</g>
</svg>
